<svg width="108" height="324" viewBox="0 0 108 324" fill="none" xmlns="http://www.w3.org/2000/svg">
<path d="M22.2674 108.38C23.2549 108.269 24.2333 108.654 24.8801 109.409L31.0008 116.548C38.0298 118.285 42.1024 123.577 44.3549 130.185C46.6759 136.993 47.25 145.637 47.25 154.5C47.25 156.157 45.9069 157.5 44.25 157.5H16.2787C14.686 157.5 13.3709 156.255 13.2832 154.665C13.205 153.246 13.5315 150.784 14.5264 148.269L14.5447 148.223C11.7193 149.739 8.58362 149.376 6.25585 147.719C3.42695 145.704 1.85402 141.762 3.65112 137.868C4.94703 135.06 6.34374 133.573 7.40034 132.449C8.3873 131.398 8.7986 130.936 9.08957 129.772C10.8538 122.716 14.4832 118.651 18.3809 116.795C18.3245 115.991 18.3704 115.217 18.469 114.514C18.7144 112.763 19.3255 111.146 19.9483 109.963C20.4114 109.084 21.2799 108.491 22.2674 108.38Z" fill="#F4F7FA"/>
<path fill-rule="evenodd" clip-rule="evenodd" d="M29.378 119.264L22.6026 111.361C21.6219 113.223 20.671 116.51 22.038 118.882C21.3746 118.941 20.7405 119.053 20.25 119.25C17.1209 120.506 13.6875 123.75 12 130.5C11.5114 132.455 10.6319 133.391 9.58665 134.503C8.60068 135.552 7.46717 136.759 6.375 139.125C4.12501 144 10.1972 148.875 14.625 144.447C17.1144 141.958 19.2903 140.93 21.1171 140.067C23.7465 138.826 25.6527 137.925 26.7295 133.5C27.2418 135.564 27.0369 140.436 22.1189 143.408C17.2008 146.381 16.1762 152.642 16.2787 154.5H44.25C44.25 136.862 41.9149 121.624 29.378 119.264Z" fill="#34364C"/>
<circle cx="21" cy="128.25" r="2.25" fill="#F4F7FA"/>
<path d="M19.7355 174.663C19.4341 173.835 19.2692 172.941 19.2692 172.01C19.2692 167.724 22.7433 164.25 27.0288 164.25C31.3144 164.25 34.7885 167.724 34.7885 172.01C34.7885 173.265 34.4885 174.455 33.9566 175.507C34.7219 175.56 35.4656 175.905 36.0077 176.524C38.9534 179.891 41.5312 184.691 41.5312 190.255C41.5312 194.232 40.1619 197.18 38.3114 199.304L41.8259 199.92C43.2609 200.172 44.3077 201.418 44.3077 202.875V208.5C44.3077 209.296 43.9916 210.059 43.429 210.621C42.8664 211.184 42.1033 211.5 41.3077 211.5L12.75 211.5C11.0931 211.5 9.75 210.157 9.75 208.5V202.875C9.75 201.42 10.7944 200.174 12.2274 199.921L15.3977 199.36C13.522 197.232 12.1298 194.268 12.1298 190.255C12.1298 185.914 13.812 182.134 15.785 179.237C17.0251 177.416 18.4291 175.87 19.7355 174.663Z" fill="#F4F7FA"/>
<path d="M28.5 189.858H25.5C25.5 184.35 27.1708 178.85 30.8671 174.825C31.4463 174.036 31.7885 173.063 31.7885 172.01C31.7885 169.381 29.6575 167.25 27.0288 167.25C24.4002 167.25 22.2692 169.381 22.2692 172.01C22.2692 173.307 22.788 174.482 23.6292 175.341C20.6561 177.46 15.1298 183.142 15.1298 190.255C15.1298 197.433 20.7579 200.339 23.7104 200.936L12.75 202.875V208.5L41.3077 208.5V202.875L30.0874 200.907C33.0733 200.25 38.5312 197.324 38.5312 190.255C38.5312 185.626 36.375 181.5 33.75 178.5C30.8671 180.75 28.5 186 28.5 189.858Z" fill="#34364C"/>
<path d="M19.5 57.75C20.0464 57.75 20.5587 57.8961 21 58.1513C21.4413 57.8961 21.9536 57.75 22.5 57.75H30.75C31.2964 57.75 31.8087 57.8961 32.25 58.1513C32.6913 57.8961 33.2036 57.75 33.75 57.75H41.25C42.9069 57.75 44.25 59.0931 44.25 60.75V67.5C44.25 68.4443 43.8054 69.3334 43.05 69.9L38.4209 73.3718L39.7317 85.1687C40.0787 88.2919 41.5324 89.8765 43.65 92.7C44.0395 93.2193 44.25 93.8509 44.25 94.5V100.5C44.25 102.157 42.9069 103.5 41.25 103.5H12C10.3431 103.5 9 102.157 9 100.5V94.5C9 93.8509 9.21053 93.2193 9.6 92.7C11.7176 89.8765 13.1713 88.2919 13.5183 85.1687L14.8291 73.3718L10.2 69.9C9.44458 69.3334 9 68.4443 9 67.5V60.75C9 59.0931 10.3431 57.75 12 57.75H19.5Z" fill="#F4F7FA"/>
<path d="M12 60.75H19.5V65.25H22.5V60.75H30.75V65.25H33.75V60.75H41.25V67.5L35.25 72L36.75 85.5H16.5L18 72L12 67.5V60.75Z" fill="#34364C"/>
<path d="M16.5 88.5H36.75L41.25 94.5V100.5H12V94.5L16.5 88.5Z" fill="#34364C"/>
<path d="M17.3306 30.8452C16.9727 31.3338 16.5456 31.8427 16.0478 32.3661C14.2909 34.2134 12.1362 35.7332 10.7455 36.5279L10.5116 36.6616C9.57685 37.1957 9 38.1897 9 39.2663V46.5C9 48.1569 10.3431 49.5 12 49.5H41.25C42.9069 49.5 44.25 48.1569 44.25 46.5V39.2663C44.25 38.1897 43.6731 37.1957 42.7384 36.6616L42.5045 36.5279C41.1138 35.7332 38.9591 34.2134 37.2022 32.3661C36.7044 31.8427 36.2773 31.3338 35.9194 30.8452C37.236 30.5281 38.2143 29.3426 38.2143 27.9286V23.0451C38.2143 22.0704 37.7407 21.1564 36.9443 20.5942L35.6702 19.6948C36.4054 18.2663 36.8214 16.6453 36.8214 14.9286C36.8214 9.16903 32.1524 4.5 26.3929 4.5C20.6333 4.5 15.9643 9.16903 15.9643 14.9286C15.9643 16.7419 16.4283 18.4479 17.2421 19.9332L16.3057 20.5942C15.5093 21.1564 15.0357 22.0704 15.0357 23.0451V27.9286C15.0357 29.3426 16.014 30.5281 17.3306 30.8452Z" fill="#F4F7FA"/>
<path d="M33.8214 14.9286C33.8214 17.0831 32.9042 19.0233 31.439 20.3802L35.2143 23.0451V27.9286H31.5184C31.6967 30.1922 33.149 32.4576 35.0284 34.4336C37.0229 36.5307 39.4225 38.222 41.0161 39.1326L41.25 39.2663V46.5H12V39.2663L12.2339 39.1326C13.8275 38.222 16.2271 36.5307 18.2216 34.4336C20.101 32.4576 21.5534 30.1922 21.7316 27.9286H18.0357V23.0451L21.5518 20.5632C19.9676 19.2009 18.9643 17.1819 18.9643 14.9286C18.9643 10.8259 22.2902 7.5 26.3929 7.5C30.4955 7.5 33.8214 10.8259 33.8214 14.9286Z" fill="#34364C"/>
<path d="M71.3306 30.8452C70.9727 31.3338 70.5456 31.8427 70.0478 32.3661C68.2909 34.2134 66.1362 35.7332 64.7455 36.5279L64.5116 36.6616C63.5769 37.1957 63 38.1897 63 39.2663V46.5C63 48.1569 64.3431 49.5 66 49.5H95.25C96.9069 49.5 98.25 48.1569 98.25 46.5V39.2663C98.25 38.1897 97.6731 37.1957 96.7384 36.6616L96.5045 36.5279C95.1138 35.7332 92.9591 34.2134 91.2022 32.3661C90.7044 31.8427 90.2773 31.3338 89.9194 30.8452C91.236 30.5281 92.2143 29.3426 92.2143 27.9286V23.0451C92.2143 22.0704 91.7407 21.1564 90.9443 20.5942L89.6702 19.6948C90.4054 18.2663 90.8214 16.6453 90.8214 14.9286C90.8214 9.16903 86.1524 4.5 80.3929 4.5C74.6333 4.5 69.9643 9.16903 69.9643 14.9286C69.9643 16.7419 70.4283 18.4479 71.2421 19.9332L70.3057 20.5942C69.5093 21.1564 69.0357 22.0704 69.0357 23.0451V27.9286C69.0357 29.3426 70.014 30.5281 71.3306 30.8452Z" fill="#34364C"/>
<path d="M87.8214 14.9286C87.8214 17.0831 86.9042 19.0233 85.439 20.3802L89.2143 23.0451V27.9286H85.5184C85.6967 30.1922 87.149 32.4576 89.0284 34.4336C91.0229 36.5307 93.4225 38.222 95.0161 39.1326L95.25 39.2663V46.5H66V39.2663L66.2339 39.1326C67.8275 38.222 70.2271 36.5307 72.2216 34.4336C74.101 32.4576 75.5534 30.1922 75.7316 27.9286H72.0357V23.0451L75.5518 20.5632C73.9676 19.2009 72.9643 17.1819 72.9643 14.9286C72.9643 10.8259 76.2902 7.5 80.3929 7.5C84.4955 7.5 87.8214 10.8259 87.8214 14.9286Z" fill="#F4F7FA"/>
<path d="M73.5 57.75C74.0464 57.75 74.5587 57.8961 75 58.1513C75.4413 57.8961 75.9536 57.75 76.5 57.75H84.75C85.2964 57.75 85.8087 57.8961 86.25 58.1513C86.6913 57.8961 87.2036 57.75 87.75 57.75H95.25C96.9069 57.75 98.25 59.0931 98.25 60.75V67.5C98.25 68.4443 97.8054 69.3334 97.05 69.9L92.4209 73.3718L93.7317 85.1687C94.0787 88.2919 95.5324 89.8765 97.65 92.7C98.0395 93.2193 98.25 93.8509 98.25 94.5V100.5C98.25 102.157 96.9069 103.5 95.25 103.5H66C64.3431 103.5 63 102.157 63 100.5V94.5C63 93.8509 63.2105 93.2193 63.6 92.7C65.7176 89.8765 67.1713 88.2919 67.5183 85.1687L68.8291 73.3718L64.2 69.9C63.4446 69.3334 63 68.4443 63 67.5V60.75C63 59.0931 64.3431 57.75 66 57.75H73.5Z" fill="#34364C"/>
<path d="M66 60.75H73.5V65.25H76.5V60.75H84.75V65.25H87.75V60.75H95.25V67.5L89.25 72L90.75 85.5H70.5L72 72L66 67.5V60.75Z" fill="#F4F7FA"/>
<path d="M70.5 88.5H90.75L95.25 94.5V100.5H66V94.5L70.5 88.5Z" fill="#F4F7FA"/>
<path d="M76.2674 108.38C77.2549 108.269 78.2333 108.654 78.8801 109.409L85.0008 116.548C92.0298 118.285 96.1024 123.577 98.3549 130.185C100.676 136.993 101.25 145.637 101.25 154.5C101.25 156.157 99.9069 157.5 98.25 157.5H70.2787C68.686 157.5 67.3709 156.255 67.2832 154.665C67.205 153.246 67.5315 150.784 68.5264 148.269L68.5447 148.223C65.7193 149.739 62.5836 149.376 60.2559 147.719C57.427 145.704 55.854 141.762 57.6511 137.868C58.947 135.06 60.3437 133.573 61.4003 132.449C62.3873 131.398 62.7986 130.936 63.0896 129.772C64.8538 122.716 68.4832 118.651 72.3809 116.795C72.3245 115.991 72.3704 115.217 72.469 114.514C72.7144 112.763 73.3255 111.146 73.9483 109.963C74.4114 109.084 75.2799 108.491 76.2674 108.38Z" fill="#34364C"/>
<path fill-rule="evenodd" clip-rule="evenodd" d="M83.378 119.264L76.6026 111.361C75.6218 113.223 74.671 116.51 76.038 118.882C75.3745 118.941 74.7404 119.053 74.2499 119.25C71.1208 120.506 67.6874 123.75 65.9999 130.5C65.5113 132.455 64.6319 133.391 63.5866 134.503C62.6006 135.552 61.4671 136.759 60.3749 139.125C58.1249 144 64.1972 148.875 68.6249 144.447C71.1143 141.958 73.2902 140.93 75.1171 140.067C77.7464 138.826 79.6527 137.925 80.7295 133.5C81.2418 135.564 81.0368 140.436 76.1188 143.408C71.2008 146.381 70.1762 152.642 70.2786 154.5H98.2499C98.2499 136.862 95.9148 121.624 83.378 119.264Z" fill="#F4F7FA"/>
<circle cx="75" cy="128.25" r="2.25" fill="#34364C"/>
<path d="M73.7355 174.663C73.4341 173.835 73.2692 172.941 73.2692 172.01C73.2692 167.724 76.7433 164.25 81.0288 164.25C85.3144 164.25 88.7885 167.724 88.7885 172.01C88.7885 173.265 88.4885 174.455 87.9566 175.507C88.7219 175.56 89.4656 175.905 90.0077 176.524C92.9534 179.891 95.5312 184.691 95.5312 190.255C95.5312 194.232 94.1619 197.18 92.3114 199.304L95.8259 199.92C97.2609 200.172 98.3077 201.418 98.3077 202.875V208.5C98.3077 209.296 97.9916 210.059 97.429 210.621C96.8664 211.184 96.1033 211.5 95.3077 211.5L66.75 211.5C65.0931 211.5 63.75 210.157 63.75 208.5V202.875C63.75 201.42 64.7944 200.174 66.2274 199.921L69.3977 199.36C67.522 197.232 66.1298 194.268 66.1298 190.255C66.1298 185.914 67.812 182.134 69.785 179.237C71.0251 177.416 72.4291 175.87 73.7355 174.663Z" fill="#34364C"/>
<path d="M82.5 189.858H79.5C79.5 184.35 81.1708 178.85 84.8671 174.825C85.4463 174.036 85.7885 173.063 85.7885 172.01C85.7885 169.381 83.6575 167.25 81.0288 167.25C78.4002 167.25 76.2692 169.381 76.2692 172.01C76.2692 173.307 76.788 174.482 77.6292 175.341C74.6561 177.46 69.1298 183.142 69.1298 190.255C69.1298 197.433 74.7579 200.339 77.7104 200.936L66.75 202.875V208.5L95.3077 208.5V202.875L84.0874 200.907C87.0733 200.25 92.5312 197.324 92.5312 190.255C92.5312 185.626 90.375 181.5 87.75 178.5C84.8671 180.75 82.5 186 82.5 189.858Z" fill="#F4F7FA"/>
<path d="M67.5 223.5C67.5 224.241 67.6191 224.953 67.8393 225.619L66.3584 226.314C65.1308 225.041 63.4078 224.25 61.5 224.25C57.7721 224.25 54.75 227.272 54.75 231C54.75 234.323 57.1513 237.085 60.3134 237.646L63.87 249.84C63.9442 250.095 64.0519 250.338 64.1902 250.564L66.24 253.919L66.2274 253.921C64.7944 254.174 63.75 255.42 63.75 256.875V262.5C63.75 264.157 65.0931 265.5 66.75 265.5L95.3077 265.5C96.1033 265.5 96.8664 265.184 97.429 264.621C97.9916 264.059 98.3077 263.296 98.3077 262.5V256.875C98.3077 255.418 97.2609 254.172 95.8259 253.92L95.7656 253.91L97.8098 250.564C97.9481 250.338 98.0558 250.095 98.13 249.84L101.687 237.646C104.849 237.085 107.25 234.323 107.25 231C107.25 227.272 104.228 224.25 100.5 224.25C98.5898 224.25 96.8649 225.043 95.637 226.319L94.1587 225.625C94.3802 224.957 94.5 224.243 94.5 223.5C94.5 219.772 91.4779 216.75 87.75 216.75C84.0221 216.75 81 219.772 81 223.5C81 219.772 77.9779 216.75 74.25 216.75C70.5221 216.75 67.5 219.772 67.5 223.5Z" fill="#34364C"/>
<path d="M75.5961 227.001C77.0022 226.46 78 225.097 78 223.5C78 221.429 76.3211 219.75 74.25 219.75C72.1789 219.75 70.5 221.429 70.5 223.5C70.5 225.414 71.9338 226.993 73.7858 227.222L72.1135 240.75L64.0516 233.748C64.7888 233.063 65.25 232.085 65.25 231C65.25 228.929 63.5711 227.25 61.5 227.25C59.4289 227.25 57.75 228.929 57.75 231C57.75 233.071 59.4289 234.75 61.5 234.75C61.8646 234.75 62.217 234.698 62.5503 234.601L66.75 249L71.093 256.107L66.75 256.875V262.5L95.3077 262.5V256.875L90.909 256.104L95.25 249L99.4497 234.601C99.783 234.698 100.135 234.75 100.5 234.75C102.571 234.75 104.25 233.071 104.25 231C104.25 228.929 102.571 227.25 100.5 227.25C98.4289 227.25 96.75 228.929 96.75 231C96.75 232.085 97.2112 233.063 97.9484 233.748L89.8865 240.75L88.2142 227.222C90.0662 226.993 91.5 225.414 91.5 223.5C91.5 221.429 89.8211 219.75 87.75 219.75C85.6789 219.75 84 221.429 84 223.5C84 225.097 84.9978 226.46 86.4039 227.001L81 239.25L75.5961 227.001Z" fill="#F4F7FA"/>
<path d="M13.5 223.5C13.5 224.241 13.6191 224.953 13.8393 225.619L12.3584 226.314C11.1308 225.041 9.40782 224.25 7.5 224.25C3.77208 224.25 0.75 227.272 0.75 231C0.75 234.323 3.15135 237.085 6.31343 237.646L9.87 249.84C9.94424 250.095 10.0519 250.338 10.1902 250.564L12.24 253.919L12.2274 253.921C10.7944 254.174 9.75 255.42 9.75 256.875V262.5C9.75 264.157 11.0931 265.5 12.75 265.5L41.3077 265.5C42.1033 265.5 42.8664 265.184 43.429 264.621C43.9916 264.059 44.3077 263.296 44.3077 262.5V256.875C44.3077 255.418 43.2609 254.172 41.8259 253.92L41.7656 253.91L43.8098 250.564C43.9481 250.338 44.0558 250.095 44.13 249.84L47.6866 237.646C50.8487 237.085 53.25 234.323 53.25 231C53.25 227.272 50.2279 224.25 46.5 224.25C44.5898 224.25 42.8649 225.043 41.637 226.319L40.1587 225.625C40.3802 224.957 40.5 224.243 40.5 223.5C40.5 219.772 37.4779 216.75 33.75 216.75C30.0221 216.75 27 219.772 27 223.5C27 219.772 23.9779 216.75 20.25 216.75C16.5221 216.75 13.5 219.772 13.5 223.5Z" fill="#F4F7FA"/>
<path d="M21.5961 227.001C23.0022 226.46 24 225.097 24 223.5C24 221.429 22.3211 219.75 20.25 219.75C18.1789 219.75 16.5 221.429 16.5 223.5C16.5 225.414 17.9338 226.993 19.7858 227.222L18.1135 240.75L10.0516 233.748C10.7888 233.063 11.25 232.085 11.25 231C11.25 228.929 9.57107 227.25 7.5 227.25C5.42893 227.25 3.75 228.929 3.75 231C3.75 233.071 5.42893 234.75 7.5 234.75C7.86458 234.75 8.21701 234.698 8.55027 234.601L12.75 249L17.093 256.107L12.75 256.875V262.5L41.3077 262.5V256.875L36.909 256.104L41.25 249L45.4497 234.601C45.783 234.698 46.1354 234.75 46.5 234.75C48.5711 234.75 50.25 233.071 50.25 231C50.25 228.929 48.5711 227.25 46.5 227.25C44.4289 227.25 42.75 228.929 42.75 231C42.75 232.085 43.2112 233.063 43.9484 233.748L35.8865 240.75L34.2142 227.222C36.0662 226.993 37.5 225.414 37.5 223.5C37.5 221.429 35.8211 219.75 33.75 219.75C31.6789 219.75 30 221.429 30 223.5C30 225.097 30.9978 226.46 32.4039 227.001L27 239.25L21.5961 227.001Z" fill="#34364C"/>
<path fill-rule="evenodd" clip-rule="evenodd" d="M22.5015 272.906C22.5521 271.287 23.8797 270 25.5 270H30C31.6204 270 32.948 271.287 32.9986 272.906L33.0249 273.75H34.5C36.1569 273.75 37.5 275.093 37.5 276.75V278.57C40.7702 277.83 44.2998 278.324 47.2956 280.82C53.5192 286.007 52.9466 296.879 45.5604 302.825C43.778 304.26 42.3777 305.45 41.4134 306.676C41.1934 306.955 41.005 307.226 40.8463 307.491L43.8867 307.902C45.3746 308.103 46.4846 309.374 46.4846 310.875V316.5C46.4846 318.157 45.1415 319.5 43.4846 319.5H12.0154C10.3586 319.5 9.01544 318.157 9.01544 316.5V310.875C9.01544 309.374 10.1254 308.103 11.6134 307.902L14.6538 307.491C14.4951 307.226 14.3067 306.955 14.0867 306.676C13.1224 305.45 11.7221 304.26 9.93964 302.825C2.55349 296.879 1.98084 286.007 8.20447 280.82C11.2003 278.324 14.7299 277.83 18 278.57V276.75C18 275.093 19.3432 273.75 21 273.75H22.4751L22.5015 272.906Z" fill="#F4F7FA"/>
<path fill-rule="evenodd" clip-rule="evenodd" d="M25.5 273H30L30.1172 276.75H34.5V281.25H30.2578L30.4639 286.345C30.5461 286.248 30.6308 286.153 30.7181 286.06C34.8154 281.705 40.8905 279.388 45.375 283.125C49.875 286.875 49.875 295.5 43.679 300.488C40.1692 303.314 37.0255 306.038 37.1804 310.022L43.4846 310.875V316.5H12.0154V310.875L18.3196 310.022C18.4745 306.038 15.3307 303.314 11.8209 300.488C5.62497 295.5 5.62497 286.875 10.125 283.125C14.6095 279.388 20.6845 281.705 24.7819 286.06C24.8692 286.153 24.9539 286.248 25.0361 286.345L25.2422 281.25H21V276.75H25.3828L25.5 273ZM21.261 290.23C24.011 294.734 24.375 300 24.375 302.29C22.9966 302.292 17.8003 300.006 15.0492 296.253C13.0686 293.552 12.5521 289.543 14.25 287.987C15.9478 286.431 19.5422 287.415 21.261 290.23ZM34.239 290.23C31.4889 294.734 31.125 300 31.125 302.29C32.5034 302.292 37.6996 300.006 40.4507 296.253C42.4314 293.552 42.9478 289.543 41.25 287.987C39.5521 286.431 35.9577 287.415 34.239 290.23Z" fill="#34364C"/>
<path fill-rule="evenodd" clip-rule="evenodd" d="M76.5014 272.906C76.552 271.287 77.8796 270 79.5 270H84C85.6203 270 86.9479 271.287 86.9985 272.906L87.0249 273.75H88.5C90.1568 273.75 91.5 275.093 91.5 276.75V278.57C94.7701 277.83 98.2997 278.324 101.296 280.82C107.519 286.007 106.947 296.879 99.5604 302.825C97.7779 304.26 96.3776 305.45 95.4133 306.676C95.1933 306.955 95.0049 307.226 94.8462 307.491L97.8867 307.902C99.3746 308.103 100.485 309.374 100.485 310.875V316.5C100.485 318.157 99.1414 319.5 97.4846 319.5H66.0154C64.3585 319.5 63.0154 318.157 63.0154 316.5V310.875C63.0154 309.374 64.1254 308.103 65.6133 307.902L68.6537 307.491C68.495 307.226 68.3066 306.955 68.0866 306.676C67.1223 305.45 65.722 304.26 63.9396 302.825C56.5534 296.879 55.9808 286.007 62.2044 280.82C65.2002 278.324 68.7298 277.83 72 278.57V276.75C72 275.093 73.3431 273.75 75 273.75H76.4751L76.5014 272.906Z" fill="#34364C"/>
<path fill-rule="evenodd" clip-rule="evenodd" d="M79.5 273H84L84.1172 276.75H88.5V281.25H84.2578L84.4639 286.345C84.5461 286.248 84.6308 286.153 84.7181 286.06C88.8154 281.705 94.8905 279.388 99.375 283.125C103.875 286.875 103.875 295.5 97.679 300.488C94.1692 303.314 91.0255 306.038 91.1804 310.022L97.4846 310.875V316.5H66.0154V310.875L72.3196 310.022C72.4745 306.038 69.3307 303.314 65.8209 300.488C59.625 295.5 59.625 286.875 64.125 283.125C68.6095 279.388 74.6845 281.705 78.7819 286.06C78.8692 286.153 78.9539 286.248 79.0361 286.345L79.2422 281.25H75V276.75H79.3828L79.5 273ZM75.261 290.23C78.011 294.734 78.375 300 78.375 302.29C76.9966 302.292 71.8003 300.006 69.0492 296.253C67.0686 293.552 66.5521 289.543 68.25 287.987C69.9478 286.431 73.5422 287.415 75.261 290.23ZM88.239 290.23C85.4889 294.734 85.125 300 85.125 302.29C86.5034 302.292 91.6996 300.006 94.4507 296.253C96.4314 293.552 96.9478 289.543 95.25 287.987C93.5521 286.431 89.9577 287.415 88.239 290.23Z" fill="#F4F7FA"/>
</svg>
