<svg width="576" height="576" viewBox="0 0 576 576" fill="none" xmlns="http://www.w3.org/2000/svg">
<path d="M569.618 564.203V565.563H564.334V564.203H569.618ZM564.758 560.047V570H563.042V560.047H564.758ZM570.938 560.047V570H569.229V560.047H570.938Z" fill="#B7C0D8"/>
<path d="M498.883 564.914V568.715C498.742 568.902 498.521 569.107 498.22 569.33C497.924 569.549 497.529 569.738 497.037 569.897C496.545 570.057 495.932 570.137 495.198 570.137C494.574 570.137 494.002 570.032 493.482 569.822C492.963 569.608 492.514 569.296 492.136 568.886C491.762 568.476 491.473 567.977 491.268 567.389C491.062 566.796 490.96 566.122 490.96 565.365V564.675C490.96 563.923 491.053 563.253 491.24 562.665C491.432 562.073 491.705 561.571 492.061 561.161C492.416 560.751 492.844 560.441 493.346 560.231C493.852 560.017 494.424 559.91 495.062 559.91C495.877 559.91 496.552 560.047 497.085 560.32C497.623 560.589 498.037 560.963 498.329 561.441C498.621 561.92 498.805 562.467 498.883 563.082H497.201C497.146 562.736 497.039 562.426 496.88 562.152C496.725 561.879 496.502 561.665 496.21 561.51C495.923 561.35 495.549 561.271 495.089 561.271C494.692 561.271 494.344 561.346 494.043 561.496C493.742 561.646 493.492 561.868 493.291 562.159C493.095 562.451 492.947 562.806 492.847 563.226C492.746 563.645 492.696 564.123 492.696 564.661V565.365C492.696 565.912 492.753 566.397 492.867 566.821C492.986 567.245 493.154 567.603 493.373 567.895C493.596 568.186 493.868 568.407 494.187 568.558C494.506 568.703 494.866 568.776 495.267 568.776C495.659 568.776 495.98 568.744 496.23 568.681C496.481 568.612 496.679 568.533 496.825 568.441C496.976 568.346 497.092 568.255 497.174 568.168V566.192H495.103V564.914H498.883Z" fill="#E8EDF9"/>
<path d="M421.872 560.047V570H420.156V560.047H421.872ZM425.933 564.401V565.762H421.435V564.401H425.933ZM426.5 560.047V561.414H421.435V560.047H426.5Z" fill="#B7C0D8"/>
<path d="M354.568 568.64V570H349.284V568.64H354.568ZM349.77 560.047V570H348.054V560.047H349.77ZM353.878 564.203V565.543H349.284V564.203H353.878ZM354.534 560.047V561.414H349.284V560.047H354.534Z" fill="#E8EDF9"/>
<path d="M278.33 570H276.204L276.218 568.64H278.33C278.945 568.64 279.46 568.505 279.875 568.236C280.294 567.967 280.609 567.582 280.818 567.081C281.033 566.58 281.14 565.983 281.14 565.29V564.75C281.14 564.212 281.078 563.736 280.955 563.321C280.837 562.907 280.659 562.558 280.422 562.275C280.189 561.993 279.902 561.779 279.561 561.633C279.223 561.487 278.834 561.414 278.392 561.414H276.163V560.047H278.392C279.052 560.047 279.656 560.159 280.203 560.382C280.75 560.601 281.222 560.917 281.618 561.332C282.019 561.747 282.327 562.243 282.541 562.822C282.755 563.401 282.862 564.048 282.862 564.764V565.29C282.862 566.006 282.755 566.653 282.541 567.231C282.327 567.81 282.019 568.307 281.618 568.722C281.217 569.132 280.739 569.449 280.183 569.672C279.631 569.891 279.014 570 278.33 570ZM277.154 560.047V570H275.438V560.047H277.154Z" fill="#B7C0D8"/>
<path d="M135.321 565.502H132.785L132.771 564.251H134.986C135.36 564.251 135.677 564.196 135.937 564.087C136.201 563.973 136.401 563.811 136.538 563.602C136.675 563.387 136.743 563.13 136.743 562.829C136.743 562.496 136.679 562.225 136.552 562.016C136.424 561.806 136.228 561.653 135.964 561.558C135.704 561.462 135.371 561.414 134.966 561.414H133.305V570H131.589V560.047H134.966C135.513 560.047 136 560.099 136.429 560.204C136.862 560.309 137.229 560.473 137.529 560.696C137.835 560.915 138.065 561.193 138.22 561.53C138.379 561.868 138.459 562.269 138.459 562.733C138.459 563.144 138.361 563.52 138.165 563.861C137.969 564.199 137.68 564.474 137.297 564.688C136.914 564.903 136.438 565.03 135.868 565.071L135.321 565.502ZM135.246 570H132.245L133.018 568.64H135.246C135.633 568.64 135.957 568.576 136.217 568.448C136.477 568.316 136.67 568.136 136.798 567.908C136.93 567.676 136.996 567.405 136.996 567.095C136.996 566.771 136.939 566.491 136.825 566.254C136.711 566.012 136.531 565.828 136.285 565.7C136.039 565.568 135.718 565.502 135.321 565.502H133.394L133.407 564.251H135.916L136.306 564.723C136.853 564.741 137.301 564.862 137.652 565.085C138.008 565.308 138.272 565.598 138.445 565.953C138.618 566.309 138.705 566.691 138.705 567.102C138.705 567.735 138.566 568.266 138.288 568.694C138.015 569.123 137.62 569.449 137.105 569.672C136.59 569.891 135.971 570 135.246 570Z" fill="#B7C0D8"/>
<path d="M63.2461 561.373L60.2725 570H58.4746L62.2207 560.047H63.3691L63.2461 561.373ZM65.7344 570L62.7539 561.373L62.624 560.047H63.7793L67.5391 570H65.7344ZM65.5908 566.309V567.669H60.1768V566.309H65.5908Z" fill="#E8EDF9"/>
<path d="M209.317 566.76H211.026C210.972 567.411 210.789 567.993 210.479 568.503C210.17 569.009 209.734 569.408 209.174 569.699C208.613 569.991 207.932 570.137 207.13 570.137C206.515 570.137 205.961 570.027 205.469 569.809C204.977 569.585 204.555 569.271 204.204 568.865C203.853 568.455 203.584 567.961 203.397 567.382C203.215 566.803 203.124 566.156 203.124 565.44V564.613C203.124 563.898 203.217 563.251 203.404 562.672C203.596 562.093 203.869 561.599 204.225 561.188C204.58 560.774 205.006 560.457 205.503 560.238C206.004 560.02 206.567 559.91 207.191 559.91C207.984 559.91 208.654 560.056 209.201 560.348C209.748 560.639 210.172 561.043 210.473 561.558C210.778 562.073 210.965 562.663 211.033 563.328H209.324C209.279 562.9 209.178 562.533 209.023 562.228C208.873 561.922 208.65 561.69 208.354 561.53C208.057 561.366 207.67 561.284 207.191 561.284C206.799 561.284 206.458 561.357 206.166 561.503C205.874 561.649 205.631 561.863 205.435 562.146C205.239 562.428 205.09 562.777 204.99 563.191C204.895 563.602 204.847 564.071 204.847 564.6V565.44C204.847 565.942 204.89 566.397 204.977 566.808C205.068 567.213 205.204 567.562 205.387 567.854C205.574 568.145 205.811 568.371 206.098 568.53C206.385 568.69 206.729 568.77 207.13 568.77C207.618 568.77 208.012 568.692 208.312 568.537C208.618 568.382 208.848 568.157 209.003 567.86C209.162 567.56 209.267 567.193 209.317 566.76Z" fill="#E8EDF9"/>
<path d="M12.2715 510.013V520H10.624V511.968L8.18359 512.795V511.435L12.0732 510.013H12.2715Z" fill="#E8EDF9"/>
<path d="M14.4453 446.688V448H7.77344V446.872L11.0137 443.338C11.3691 442.937 11.6494 442.59 11.8545 442.299C12.0596 442.007 12.2031 441.745 12.2852 441.513C12.3717 441.276 12.415 441.046 12.415 440.822C12.415 440.508 12.3558 440.232 12.2373 439.995C12.1234 439.754 11.9548 439.564 11.7314 439.428C11.5081 439.286 11.237 439.216 10.918 439.216C10.5488 439.216 10.2389 439.296 9.98828 439.455C9.73763 439.615 9.5485 439.836 9.4209 440.118C9.29329 440.396 9.22949 440.715 9.22949 441.075H7.58203C7.58203 440.496 7.71419 439.968 7.97852 439.489C8.24284 439.006 8.62565 438.623 9.12695 438.341C9.62826 438.054 10.2321 437.91 10.9385 437.91C11.6038 437.91 12.1689 438.022 12.6338 438.245C13.0986 438.468 13.4518 438.785 13.6934 439.195C13.9395 439.605 14.0625 440.091 14.0625 440.651C14.0625 440.961 14.0124 441.269 13.9121 441.574C13.8118 441.88 13.6683 442.185 13.4814 442.49C13.2992 442.791 13.0827 443.094 12.832 443.399C12.5814 443.7 12.3057 444.006 12.0049 444.315L9.85156 446.688H14.4453Z" fill="#B7C0D8"/>
<path d="M9.70801 370.278H10.6924C11.0752 370.278 11.3919 370.212 11.6426 370.08C11.8978 369.948 12.0869 369.766 12.21 369.533C12.333 369.301 12.3945 369.034 12.3945 368.733C12.3945 368.419 12.3376 368.15 12.2236 367.927C12.1143 367.699 11.9456 367.523 11.7178 367.4C11.4945 367.277 11.2096 367.216 10.8633 367.216C10.5716 367.216 10.3073 367.275 10.0703 367.394C9.83789 367.507 9.65332 367.672 9.5166 367.886C9.37988 368.095 9.31152 368.346 9.31152 368.638H7.65723C7.65723 368.109 7.79622 367.64 8.07422 367.229C8.35221 366.819 8.73047 366.498 9.20898 366.266C9.69206 366.029 10.2344 365.91 10.8359 365.91C11.4785 365.91 12.0391 366.017 12.5176 366.231C13.0007 366.441 13.3766 366.756 13.6455 367.175C13.9144 367.594 14.0488 368.114 14.0488 368.733C14.0488 369.016 13.9827 369.303 13.8506 369.595C13.7184 369.886 13.5225 370.153 13.2627 370.395C13.0029 370.632 12.6794 370.825 12.292 370.976C11.9046 371.121 11.4557 371.194 10.9453 371.194H9.70801V370.278ZM9.70801 371.563V370.661H10.9453C11.5286 370.661 12.0254 370.729 12.4355 370.866C12.8503 371.003 13.1875 371.192 13.4473 371.434C13.707 371.671 13.8962 371.942 14.0146 372.247C14.1377 372.552 14.1992 372.876 14.1992 373.218C14.1992 373.683 14.1149 374.097 13.9463 374.462C13.7822 374.822 13.5475 375.127 13.2422 375.378C12.9368 375.629 12.5791 375.818 12.1689 375.945C11.7633 376.073 11.3213 376.137 10.8428 376.137C10.4144 376.137 10.0042 376.077 9.6123 375.959C9.22038 375.84 8.86947 375.665 8.55957 375.433C8.24967 375.196 8.00358 374.902 7.82129 374.551C7.64355 374.195 7.55469 373.785 7.55469 373.32H9.20215C9.20215 373.617 9.27051 373.879 9.40723 374.106C9.5485 374.33 9.74447 374.505 9.99512 374.633C10.2503 374.76 10.542 374.824 10.8701 374.824C11.2165 374.824 11.515 374.763 11.7656 374.64C12.0163 374.517 12.2077 374.334 12.3398 374.093C12.4766 373.851 12.5449 373.56 12.5449 373.218C12.5449 372.83 12.4697 372.516 12.3193 372.274C12.1689 372.033 11.9548 371.855 11.6768 371.741C11.3988 371.623 11.0706 371.563 10.6924 371.563H9.70801Z" fill="#E8EDF9"/>
<path d="M14.6299 300.452V301.765H7.45215L7.39746 300.773L11.6904 294.047H13.0098L11.5811 296.494L9.11328 300.452H14.6299ZM13.3857 294.047V304H11.7383V294.047H13.3857Z" fill="#B7C0D8"/>
<path d="M9.50293 227.372L8.19043 227.051L8.73047 222.047H14.0967V223.441H10.0977L9.82422 225.882C9.97917 225.791 10.1934 225.702 10.4668 225.615C10.7402 225.524 11.0524 225.479 11.4033 225.479C11.8727 225.479 12.292 225.556 12.6611 225.711C13.0348 225.861 13.3516 226.082 13.6113 226.374C13.8711 226.661 14.0693 227.012 14.2061 227.427C14.3428 227.837 14.4111 228.299 14.4111 228.814C14.4111 229.275 14.3428 229.705 14.2061 230.106C14.0739 230.507 13.8734 230.861 13.6045 231.166C13.3356 231.471 12.9961 231.711 12.5859 231.884C12.1803 232.052 11.6995 232.137 11.1436 232.137C10.7288 232.137 10.3301 232.077 9.94727 231.959C9.56901 231.836 9.22949 231.656 8.92871 231.419C8.62793 231.177 8.38639 230.881 8.2041 230.53C8.02181 230.175 7.91699 229.767 7.88965 229.307H9.50293C9.54395 229.63 9.63281 229.906 9.76953 230.134C9.91081 230.357 10.0977 230.528 10.3301 230.646C10.5625 230.765 10.8314 230.824 11.1367 230.824C11.4147 230.824 11.654 230.776 11.8545 230.681C12.055 230.58 12.2214 230.439 12.3535 230.257C12.4902 230.07 12.5905 229.851 12.6543 229.601C12.7227 229.35 12.7568 229.072 12.7568 228.767C12.7568 228.475 12.7181 228.208 12.6406 227.967C12.5677 227.725 12.4561 227.516 12.3057 227.338C12.1598 227.16 11.9753 227.023 11.752 226.928C11.5286 226.827 11.2712 226.777 10.9795 226.777C10.5876 226.777 10.2868 226.834 10.0771 226.948C9.87207 227.062 9.68066 227.203 9.50293 227.372Z" fill="#E8EDF9"/>
<path d="M12.75 149.985H12.9551V151.332H12.8389C12.251 151.332 11.7428 151.423 11.3145 151.605C10.8906 151.788 10.542 152.038 10.2686 152.357C9.99512 152.676 9.79004 153.05 9.65332 153.479C9.52116 153.902 9.45508 154.354 9.45508 154.832V156.397C9.45508 156.794 9.49837 157.145 9.58496 157.45C9.67155 157.751 9.79232 158.004 9.94727 158.209C10.1068 158.41 10.2891 158.562 10.4941 158.667C10.6992 158.772 10.9202 158.824 11.1572 158.824C11.4033 158.824 11.6266 158.774 11.8271 158.674C12.0277 158.569 12.1986 158.425 12.3398 158.243C12.4811 158.061 12.5882 157.844 12.6611 157.594C12.734 157.343 12.7705 157.07 12.7705 156.773C12.7705 156.491 12.734 156.227 12.6611 155.98C12.5928 155.73 12.4902 155.511 12.3535 155.324C12.2168 155.133 12.0459 154.985 11.8408 154.88C11.6403 154.771 11.4079 154.716 11.1436 154.716C10.8154 154.716 10.5169 154.793 10.248 154.948C9.98372 155.103 9.76953 155.306 9.60547 155.557C9.44596 155.803 9.35938 156.065 9.3457 156.343L8.7168 156.138C8.75326 155.714 8.84668 155.333 8.99707 154.996C9.15202 154.659 9.35482 154.372 9.60547 154.135C9.85612 153.898 10.1455 153.718 10.4736 153.595C10.8063 153.467 11.1709 153.403 11.5674 153.403C12.0505 153.403 12.4697 153.494 12.8252 153.677C13.1807 153.859 13.4746 154.107 13.707 154.422C13.944 154.732 14.1195 155.087 14.2334 155.488C14.3519 155.885 14.4111 156.299 14.4111 156.732C14.4111 157.211 14.3382 157.658 14.1924 158.072C14.0465 158.482 13.8324 158.842 13.5498 159.152C13.2718 159.462 12.9323 159.704 12.5312 159.877C12.1348 160.05 11.6836 160.137 11.1777 160.137C10.6445 160.137 10.1683 160.034 9.74902 159.829C9.33431 159.624 8.98112 159.341 8.68945 158.981C8.40234 158.621 8.18359 158.207 8.0332 157.737C7.88281 157.268 7.80762 156.771 7.80762 156.247V155.563C7.80762 154.807 7.90332 154.094 8.09473 153.424C8.28613 152.749 8.58008 152.155 8.97656 151.64C9.3776 151.125 9.8903 150.721 10.5146 150.43C11.139 150.133 11.8841 149.985 12.75 149.985Z" fill="#B7C0D8"/>
<path d="M14.3838 78.0469V78.9492L10.4053 88H8.66895L12.6406 79.3594H7.48633V78.0469H14.3838Z" fill="#E8EDF9"/>
<path d="M14.2812 13.2861C14.2812 13.9059 14.1377 14.4277 13.8506 14.8516C13.5635 15.2754 13.1715 15.5967 12.6748 15.8154C12.1826 16.0296 11.6266 16.1367 11.0068 16.1367C10.387 16.1367 9.82878 16.0296 9.33203 15.8154C8.83529 15.5967 8.44336 15.2754 8.15625 14.8516C7.86914 14.4277 7.72559 13.9059 7.72559 13.2861C7.72559 12.876 7.80534 12.5046 7.96484 12.1719C8.12435 11.8346 8.34993 11.5452 8.6416 11.3037C8.93783 11.0576 9.28418 10.8685 9.68066 10.7363C10.0817 10.6042 10.5192 10.5381 10.9932 10.5381C11.6221 10.5381 12.1849 10.6543 12.6816 10.8867C13.1784 11.1191 13.568 11.4404 13.8506 11.8506C14.1377 12.2607 14.2812 12.7393 14.2812 13.2861ZM12.627 13.2041C12.627 12.8714 12.5586 12.5798 12.4219 12.3291C12.2852 12.0785 12.0938 11.8848 11.8477 11.748C11.6016 11.6113 11.3167 11.543 10.9932 11.543C10.665 11.543 10.3802 11.6113 10.1387 11.748C9.89714 11.8848 9.70801 12.0785 9.57129 12.3291C9.43913 12.5798 9.37305 12.8714 9.37305 13.2041C9.37305 13.5413 9.43913 13.833 9.57129 14.0791C9.70345 14.3206 9.89258 14.5052 10.1387 14.6328C10.3848 14.7604 10.6742 14.8242 11.0068 14.8242C11.3395 14.8242 11.6266 14.7604 11.8682 14.6328C12.1097 14.5052 12.2965 14.3206 12.4287 14.0791C12.5609 13.833 12.627 13.5413 12.627 13.2041ZM14.0557 8.66504C14.0557 9.16178 13.9235 9.60384 13.6592 9.99121C13.3994 10.3786 13.0394 10.6839 12.5791 10.9072C12.1188 11.126 11.5947 11.2354 11.0068 11.2354C10.4144 11.2354 9.88574 11.126 9.4209 10.9072C8.96061 10.6839 8.59831 10.3786 8.33398 9.99121C8.07422 9.60384 7.94434 9.16178 7.94434 8.66504C7.94434 8.07259 8.07422 7.57357 8.33398 7.16797C8.59831 6.75781 8.96061 6.44564 9.4209 6.23145C9.88118 6.01725 10.4076 5.91016 11 5.91016C11.5924 5.91016 12.1188 6.01725 12.5791 6.23145C13.0394 6.44564 13.3994 6.75781 13.6592 7.16797C13.9235 7.57357 14.0557 8.07259 14.0557 8.66504ZM12.4082 8.71973C12.4082 8.4235 12.349 8.16374 12.2305 7.94043C12.1165 7.71257 11.9548 7.53483 11.7451 7.40723C11.5355 7.27962 11.2871 7.21582 11 7.21582C10.7129 7.21582 10.4645 7.27734 10.2549 7.40039C10.0452 7.52344 9.88346 7.69661 9.76953 7.91992C9.6556 8.14323 9.59863 8.40983 9.59863 8.71973C9.59863 9.02507 9.6556 9.29167 9.76953 9.51953C9.88346 9.74284 10.0452 9.91829 10.2549 10.0459C10.4691 10.1735 10.7197 10.2373 11.0068 10.2373C11.2939 10.2373 11.5423 10.1735 11.752 10.0459C11.9616 9.91829 12.1234 9.74284 12.2373 9.51953C12.3512 9.29167 12.4082 9.02507 12.4082 8.71973Z" fill="#B7C0D8"/>
</svg>
